#!OML:ASF X:\für Bonn\!DataBase\2005_08_11_Bastian_Final\c3d\Bastian.ASF
:FULLY-SPECIFIED
:DEGREES
482
root 1.25654 1.23967 25.156 -810.582 -176.453 -715.987
lowerback 22.2113 0.826349 -2.2178
upperback 22.4302 -5.2852 -1.59254
thorax 13.4451 -6.05629 -0.81272
lowerneck 6.72535 -2.05171 -7.44888
upperneck 21.6694 0.0591026 -2.55422
head 5.55603 0.428005 0.550639
rclavicle 7.55382e-015 2.18663e-014
rhumerus -38.0043 24.7822 -81.7639
rradius 52.7057
rwrist 16.8711
rhand -32.5648 5.09794
rfingers 7.12502
rthumb -5.79402 -24.8028
lclavicle 7.55382e-015 2.18663e-014
lhumerus -35.6542 -29.4439 78.5576
lradius 41.9259
lwrist 15.4439
lhand -25.642 -17.9154
lfingers 7.12502
lthumb 0.891508 12.0625
rfemur -14.2335 6.41669 17.8766
rtibia 36.3842
rfoot 1.41368 -13.2173
rtoes 0.752884
lfemur -4.34981 -0.61644 -23.4201
ltibia 15.9029
lfoot 7.02093 -3.53533
ltoes -32.4332
483
root 1.25975 1.23425 25.1603 -810.583 -176.455 -716.036
lowerback 21.7182 0.742955 -2.21379
upperback 22.2588 -5.2296 -1.60304
thorax 13.4577 -5.94452 -0.837158
lowerneck 6.734 -2.09199 -7.5271
upperneck 21.7983 0.0339213 -2.57234
head 5.59855 0.416974 0.558994
rclavicle -4.01545e-014 3.1408e-014
rhumerus -38.0317 24.7154 -81.646
rradius 52.7427
rwrist 16.763
rhand -32.0479 5.02485
rfingers 7.12502
rthumb -5.29499 -24.889
lclavicle -4.01545e-014 3.1408e-014
lhumerus -35.6576 -29.2958 78.6124
lradius 41.7068
lwrist 15.2563
lhand -25.5779 -17.9124
lfingers 7.12502
lthumb 0.953454 12.0653
rfemur -14.2127 6.55622 17.9351
rtibia 36.2874
rfoot 1.33493 -13.2476
rtoes 0.782584
lfemur -4.44349 -0.560132 -23.3971
ltibia 16.0509
lfoot 6.98731 -3.51147
ltoes -32.6616
484
root 1.26267 1.22862 25.1651 -810.583 -176.455 -716.077
lowerback 21.2307 0.654883 -2.20963
upperback 22.0748 -5.17698 -1.6219
thorax 13.452 -5.83154 -0.867539
lowerneck 6.79137 -2.14079 -7.51442
upperneck 21.9223 0.00627798 -2.64051
head 5.63044 0.411657 0.536346
rclavicle -2.34566e-014 -7.95139e-015
rhumerus -38.1091 24.6843 -81.5726
rradius 52.777
rwrist 16.6213
rhand -31.5031 4.97402
rfingers 7.12502
rthumb -4.7689 -24.9523
lclavicle -2.34566e-014 -7.95139e-015
lhumerus -35.6921 -29.1308 78.6597
lradius 41.4922
lwrist 15.0133
lhand -25.5294 -17.9102
lfingers 7.12502
lthumb 1.00026 12.0672
rfemur -14.2081 6.62695 17.9867
rtibia 36.2165
rfoot 1.24995 -13.2655
rtoes 0.880975
lfemur -4.52161 -0.569807 -23.3806
ltibia 16.17
lfoot 6.94793 -3.45487
ltoes -32.9371
485
root 1.26486 1.22364 25.17 -810.571 -176.431 -716.127
lowerback 20.7133 0.576685 -2.20451
upperback 21.91 -5.1171 -1.65269
thorax 13.4897 -5.71729 -0.919257
lowerneck 6.80913 -2.19445 -7.41642
upperneck 22.0131 -0.0339107 -2.72569
head 5.65655 0.40146 0.493159
rclavicle 1.51076e-014 1.03368e-014
rhumerus -38.1573 24.701 -81.5151
rradius 52.7789
rwrist 16.4079
rhand -31.0253 4.93691
rfingers 7.12502
rthumb -4.30756 -24.9993
lclavicle 1.51076e-014 1.03368e-014
lhumerus -35.6665 -28.9811 78.6648
lradius 41.2868
lwrist 14.7563
lhand -25.5281 -17.8743
lfingers 7.12502
lthumb 1.00151 12.1031
rfemur -14.2266 6.72742 18.0051
rtibia 36.1587
rfoot 1.22127 -13.3145
rtoes 0.818128
lfemur -4.61575 -0.568249 -23.401
ltibia 16.2872
lfoot 6.92087 -3.42515
ltoes -33.066
486
root 1.26739 1.21808 25.1748 -810.561 -176.43 -716.168
lowerback 20.2126 0.500048 -2.17262
upperback 21.7299 -5.05095 -1.67121
thorax 13.4996 -5.596 -0.967509
lowerneck 6.83742 -2.26134 -7.32433
upperneck 22.1229 -0.0954072 -2.77837
head 5.68742 0.383229 0.460853
rclavicle 4.37326e-015 1.98785e-014
rhumerus -38.2317 24.7088 -81.4555
rradius 52.7456
rwrist 16.2365
rhand -30.5048 4.90406
rfingers 7.12502
rthumb -3.80494 -25.0417
lclavicle 4.37326e-015 1.98785e-014
lhumerus -35.6931 -28.8735 78.6838
lradius 41.1183
lwrist 14.475
lhand -25.526 -17.807
lfingers 7.12502
lthumb 1.00352 12.1703
rfemur -14.2502 6.75856 18.0551
rtibia 36.116
rfoot 1.21302 -13.3571
rtoes 0.672292
lfemur -4.71027 -0.506012 -23.3885
ltibia 16.407
lfoot 6.93472 -3.47264
ltoes -33.079
487
root 1.26973 1.21264 25.1794 -810.561 -176.428 -716.218
lowerback 19.7136 0.429918 -2.15523
upperback 21.5658 -4.98988 -1.68111
thorax 13.5361 -5.4863 -1.00132
lowerneck 6.83179 -2.31634 -7.24085
upperneck 22.2025 -0.146678 -2.83593
head 5.71381 0.365888 0.428206
rclavicle 4.37326e-014 -4.37326e-015
rhumerus -38.2711 24.8632 -81.3991
rradius 52.6655
rwrist 15.9154
rhand -30.0262 4.90796
rfingers 7.12502
rthumb -3.3428 -25.0456
lclavicle 4.37326e-014 -4.37326e-015
lhumerus -35.6598 -28.714 78.6846
lradius 40.9354
lwrist 14.1855
lhand -25.5002 -17.7348
lfingers 7.12502
lthumb 1.02851 12.2424
rfemur -14.2622 6.80809 18.0991
rtibia 36.0805
rfoot 1.17 -13.4545
rtoes 0.8233
lfemur -4.78862 -0.49667 -23.3825
ltibia 16.5312
lfoot 6.91413 -3.52775
ltoes -33.2051
488
root 1.27144 1.20755 25.1848 -810.539 -176.406 -716.268
lowerback 19.1859 0.356137 -2.15922
upperback 21.3866 -4.92876 -1.68645
thorax 13.5723 -5.37584 -1.0178
lowerneck 6.83277 -2.38 -7.18011
upperneck 22.2938 -0.205495 -2.90155
head 5.74355 0.34391 0.396686
rclavicle 2.98177e-014 4.01545e-014
rhumerus -38.2973 25.0973 -81.3358
rradius 52.5052
rwrist 15.5354
rhand -29.5652 4.91033
rfingers 7.12502
rthumb -2.89754 -25.0497
lclavicle 2.98177e-014 4.01545e-014
lhumerus -35.6188 -28.3782 78.6733
lradius 40.7355
lwrist 13.6374
lhand -25.4847 -17.6222
lfingers 7.12502
lthumb 1.04344 12.355
rfemur -14.3092 6.76452 18.1146
rtibia 36.0536
rfoot 1.18032 -13.4784
rtoes 0.723609
lfemur -4.90162 -0.465615 -23.4057
ltibia 16.6611
lfoot 6.92478 -3.57494
ltoes -33.1314
489
root 1.27317 1.20139 25.1887 -810.528 -176.382 -716.307
lowerback 18.6975 0.27767 -2.15593
upperback 21.1924 -4.87257 -1.71093
thorax 13.567 -5.26474 -1.05257
lowerneck 6.88262 -2.43793 -7.05759
upperneck 22.3624 -0.259693 -2.97463
head 5.75664 0.330205 0.352504
rclavicle 3.85642e-014 -4.77083e-015
rhumerus -38.3722 25.3116 -81.3248
rradius 52.3366
rwrist 15.1351
rhand -29.08 4.96632
rfingers 7.12502
rthumb -2.42899 -24.9996
lclavicle 3.85642e-014 -4.77083e-015
lhumerus -35.6347 -28.1214 78.6651
lradius 40.5531
lwrist 13.1651
lhand -25.527 -17.5057
lfingers 7.12502
lthumb 1.00257 12.4716
rfemur -14.349 6.77513 18.1259
rtibia 36.0302
rfoot 1.16529 -13.594
rtoes 0.892421
lfemur -4.99531 -0.518483 -23.4302
ltibia 16.7867
lfoot 6.94395 -3.58907
ltoes -32.9799
490
root 1.27534 1.1949 25.1937 -810.529 -176.332 -716.357
lowerback 18.2127 0.220841 -2.17387
upperback 21.0174 -4.80031 -1.73279
thorax 13.59 -5.15479 -1.07748
lowerneck 6.90141 -2.50876 -6.88568
upperneck 22.4037 -0.332671 -3.08023
head 5.76512 0.306117 0.288699
rclavicle 3.61788e-014 -1.27222e-014
rhumerus -38.3992 25.5723 -81.3015
rradius 52.128
rwrist 14.6834
rhand -28.6185 5.04984
rfingers 7.12502
rthumb -1.98331 -24.9207
lclavicle 3.61788e-014 -1.27222e-014
lhumerus -35.5774 -27.8126 78.6377
lradius 40.3427
lwrist 12.5956
lhand -25.5432 -17.4008
lfingers 7.12502
lthumb 0.986912 12.5766
rfemur -14.3749 6.77961 18.1168
rtibia 36.0084
rfoot 1.13832 -13.6922
rtoes 0.836113
lfemur -5.08644 -0.488283 -23.4834
ltibia 16.9145
lfoot 6.95458 -3.69913
ltoes -32.9579
491
root 1.27691 1.18771 25.1997 -810.508 -176.31 -716.387
lowerback 17.7125 0.14757 -2.16408
upperback 20.834 -4.74663 -1.74319
thorax 13.6126 -5.05017 -1.10332
lowerneck 6.87065 -2.58435 -6.72862
upperneck 22.4724 -0.402205 -3.21195
head 5.79055 0.279717 0.219173
rclavicle -4.57205e-014 1.19271e-014
rhumerus -38.4192 25.8917 -81.2681
rradius 51.9051
rwrist 14.2251
rhand -28.1306 5.17367
rfingers 7.12502
rthumb -1.51207 -24.8007
lclavicle -4.57205e-014 1.19271e-014
lhumerus -35.5248 -27.3716 78.5874
lradius 40.1807
lwrist 11.9428
lhand -25.5459 -17.2619
lfingers 7.12502
lthumb 0.984354 12.7155
rfemur -14.4294 6.76518 18.1345
rtibia 35.9919
rfoot 1.12969 -13.7907
rtoes 0.656071
lfemur -5.19316 -0.489085 -23.5017
ltibia 17.0258
lfoot 7.00158 -3.77487
ltoes -32.6005
492
root 1.27924 1.18235 25.2049 -810.508 -176.286 -716.428
lowerback 17.2192 0.0882332 -2.17012
upperback 20.6489 -4.67883 -1.74382
thorax 13.6336 -4.94317 -1.1096
lowerneck 6.86673 -2.66044 -6.56595
upperneck 22.5196 -0.472893 -3.36023
head 5.80442 0.25329 0.143259
rclavicle 2.78299e-015 -1.90833e-014
rhumerus -38.4308 26.2369 -81.2267
rradius 51.6158
rwrist 13.7873
rhand -27.6353 5.35706
rfingers 7.12502
rthumb -1.0337 -24.6202
lclavicle 2.78299e-015 -1.90833e-014
lhumerus -35.451 -26.8566 78.5441
lradius 39.949
lwrist 11.1099
lhand -25.513 -17.1329
lfingers 7.12502
lthumb 1.01612 12.8444
rfemur -14.4574 6.77906 18.1558
rtibia 35.9745
rfoot 1.07336 -13.9214
rtoes 0.654653
lfemur -5.26832 -0.508994 -23.5274
ltibia 17.1284
lfoot 7.04223 -3.79222
ltoes -32.3186
493
root 1.28111 1.17813 25.211 -810.487 -176.236 -716.468
lowerback 16.676 0.0247619 -2.21102
upperback 20.4689 -4.6177 -1.7525
thorax 13.6941 -4.84317 -1.11068
lowerneck 6.80756 -2.73229 -6.44493
upperneck 22.5918 -0.536551 -3.49714
head 5.83581 0.225267 0.0779665
rclavicle 1.51076e-014 3.02153e-014
rhumerus -38.4259 26.6776 -81.2043
rradius 51.3061
rwrist 13.3508
rhand -27.2088 5.5098
rfingers 7.12502
rthumb -0.6218 -24.469
lclavicle 1.51076e-014 3.02153e-014
lhumerus -35.388 -26.2892 78.4697
lradius 39.8072
lwrist 10.3211
lhand -25.4447 -16.982
lfingers 7.12502
lthumb 1.08207 12.995
rfemur -14.5004 6.7798 18.1452
rtibia 35.9587
rfoot 1.00195 -14.0374
rtoes 0.584572
lfemur -5.35694 -0.478241 -23.5798
ltibia 17.2273
lfoot 7.09329 -3.92459
ltoes -31.992
